<?xml version="1.0" standalone="no"?>
<!DOCTYPE svg PUBLIC "-//W3C//DTD SVG 20010904//EN"
 "http://www.w3.org/TR/2001/REC-SVG-20010904/DTD/svg10.dtd">
<svg version="1.0" xmlns="http://www.w3.org/2000/svg"
 width="256.000000pt" height="256.000000pt" viewBox="0 0 256.000000 256.000000"
 preserveAspectRatio="xMidYMid meet">
<metadata>
Created by potrace 1.11, written by Peter Selinger 2001-2013
</metadata>
<g transform="translate(0.000000,256.000000) scale(0.100000,-0.100000)"
fill="#000000" stroke="none">
<path d="M510 2090 c-106 -19 -180 -110 -180 -221 0 -73 39 -123 295 -379
l245 -245 37 38 38 37 -254 254 c-145 146 -251 260 -249 268 14 40 46 15 292
-231 l252 -251 39 40 39 40 -253 254 c-145 146 -251 260 -249 268 14 40 46 15
292 -231 l252 -251 37 38 37 38 -253 251 c-138 138 -262 256 -274 262 -34 18
-104 28 -143 21z"/>
<path d="M1615 2072 c-191 -66 -314 -244 -303 -439 l3 -52 -467 -468 c-352
-353 -472 -479 -487 -513 -27 -59 -28 -160 -2 -215 59 -127 221 -186 343 -125
32 15 188 165 514 491 l469 469 47 0 c205 0 383 133 434 324 19 71 18 170 -2
190 -34 34 -61 20 -173 -87 -146 -141 -167 -143 -278 -32 -67 67 -73 76 -73
115 0 40 6 47 110 155 90 94 110 120 110 144 0 46 -30 61 -120 61 -44 -1 -95
-8 -125 -18z m-943 -1500 c57 -57 46 -162 -22 -197 -38 -20 -104 -19 -136 1
-59 39 -72 131 -27 184 34 41 58 51 112 46 32 -3 51 -12 73 -34z"/>
<path d="M1495 920 l-49 -50 147 -148 c101 -102 147 -155 147 -171 0 -53 57
-117 180 -198 83 -56 172 -103 193 -103 21 0 57 44 57 69 0 29 -31 88 -100
191 -74 108 -123 155 -180 171 -38 10 -68 35 -185 151 -77 76 -145 138 -151
138 -5 0 -32 -22 -59 -50z"/>
</g>
</svg>
